<?xml version="1.0" encoding="utf-8"?>
<!-- Generator: Adobe Illustrator 19.0.0, SVG Export Plug-In . SVG Version: 6.00 Build 0)  -->
<svg version="1.1" id="Layer_1" xmlns="http://www.w3.org/2000/svg" xmlns:xlink="http://www.w3.org/1999/xlink" x="0px" y="0px"
	 viewBox="0 0 500 165" style="enable-background:new 0 0 500 165;" xml:space="preserve">
<style type="text/css">
	.st0{opacity:0.7;fill:#EC1C24;}
	.st1{opacity:0.5;fill:#EC1C24;}
	.st2{opacity:0.8;fill:#3B52A3;}
	.st3{opacity:0.6;fill:#3B52A3;}
	.st4{opacity:0.9;}
	.st5{fill:#EC1E24;}
	.st6{fill:#3A54A4;}
</style>
<ellipse id="XMLID_5_" class="st0" cx="235.7" cy="82.7" rx="80.7" ry="79.3"/>
<ellipse id="XMLID_4_" class="st1" cx="85.7" cy="82.7" rx="80.7" ry="79.3"/>
<ellipse id="XMLID_3_" class="st2" cx="309.7" cy="83.3" rx="80.7" ry="79.3"/>
<ellipse id="XMLID_2_" class="st3" cx="161" cy="83.7" rx="80.7" ry="79.3"/>
<g id="XMLID_11_" class="st4">
	<path id="XMLID_12_" class="st5" d="M395.3,104.2l24.4,9.5c-3.8,17-10.1,29.5-19,37.3c-8.9,7.9-19.8,11.8-32.7,11.8
		c-16.3,0-29.5-6.3-39.6-18.8c-11.6-14.5-17.5-34-17.5-58.6c0-26,5.9-46.3,17.6-61c10.2-12.7,23.9-19.1,41.1-19.1
		c14,0,25.7,4.8,35.1,14.3c6.7,6.8,11.6,16.9,14.8,30.2l-24.9,7.3c-1.6-8.2-4.8-14.6-9.5-19c-4.8-4.4-10.4-6.6-16.8-6.6
		c-9.2,0-16.8,4-22.6,12.1c-5.8,8-8.7,21.3-8.7,39.8c0,19.2,2.8,32.8,8.5,40.9c5.7,8.1,13.1,12.2,22.1,12.2c6.6,0,12.4-2.6,17.2-7.7
		C389.7,123.6,393.2,115.4,395.3,104.2z"/>
</g>
<g id="XMLID_6_">
	<path id="XMLID_8_" class="st6" d="M453.7,158.1v-30.6h-51.1v-25.6l54.1-96.6h20.2v96.5h15.5v25.7h-15.5v30.6H453.7z M453.7,101.8
		v-52l-28.7,52H453.7z"/>
</g>
</svg>
